<svg xmlns="http://www.w3.org/2000/svg" viewBox="0 0 24 24">
  <defs>
    <linearGradient id="igFlat" x1="0%" y1="0%" x2="100%" y2="100%">
      <stop offset="0%" stop-color="#FEDA75"></stop>
      <stop offset="25%" stop-color="#FA7E1E"></stop>
      <stop offset="50%" stop-color="#D62976"></stop>
      <stop offset="75%" stop-color="#962FBF"></stop>
      <stop offset="100%" stop-color="#4F5BD5"></stop>
    </linearGradient>
  </defs>
  <path fill="url(#igFlat)" d="M12 2.2c2.6 0 2.9 0 3.9.1 1 .1 1.7.3 2.3.6.6.3 1.1.7 1.6 1.2s.9 1 1.2 1.6c.3.6.5 1.3.6 2.3.1 1 .1 1.3.1 3.9s0 2.9-.1 3.9c-.1 1-.3 1.7-.6 2.3-.3.6-.7 1.1-1.2 1.6s-1 .9-1.6 1.2c-.6.3-1.3.5-2.3.6-1 .1-1.3.1-3.9.1s-2.9 0-3.9-.1c-1-.1-1.7-.3-2.3-.6-.6-.3-1.1-.7-1.6-1.2s-.9-1-1.2-1.6c-.3-.6-.5-1.3-.6-2.3C2.2 14.9 2.2 14.6 2.2 12s0-2.9.1-3.9c.1-1 .3-1.7.6-2.3.3-.6.7-1.1 1.2-1.6s1-.9 1.6-1.2c.6-.3 1.3-.5 2.3-.6C9.1 2.2 9.4 2.2 12 2.2zm0 3.2a6.6 6.6 0 100 13.2 6.6 6.6 0 000-13.2zm6.8-1.3a1.6 1.6 0 11-3.1 0 1.6 1.6 0 013.1 0z"></path>
</svg>
