<svg xmlns="http://www.w3.org/2000/svg" viewBox="0 0 24 24" fill="#E60023">
  <path d="M12 2C7 2 3 6.1 3 11c0 3.5 2.1 6.5 5.4 7.7-.1-.7-.1-1.8.1-2.6.2-.8 1.5-5.3 1.5-5.3s-.4-.7-.4-1.8c0-1.7 1-3 2.3-3 1.1 0 1.7.8 1.7 1.8 0 1.1-.7 2.7-1.1 4.2-.3 1.1.7 2.1 1.8 2.1 2.2 0 3.8-2.3 3.8-5.5 0-2.9-2.1-5-5.2-5-3.6 0-5.7 2.7-5.7 5.5 0 .8.2 1.7.7 2.2.1.1.1.2.1.3-.1.4-.3 1.2-.4 1.4-.1.2-.2.2-.4.1-1.6-.8-2.5-2.8-2.5-4.7C5 6.4 8 3 12.6 3c4.3 0 7.4 3 7.4 7.1 0 4.3-2.7 7.5-6.6 7.5-1.3 0-2.5-.6-3-1.3l-.8 3c-.3 1-1 2.1-1.5 2.8 1.1.3 2.2.4 3.4.4 5 0 9-4.1 9-9S17 2 12 2z"></path>
</svg>
